<svg width="200" height="200" viewBox="0 0 200 200" fill="none" xmlns="http://www.w3.org/2000/svg">
  <!-- Cercle extérieur -->
  <circle cx="100" cy="100" r="95" stroke="#304E32" stroke-width="3" fill="none"/>
  
  <!-- Élément central - Feuille stylisée -->
  <path d="M100 40 C100 40, 140 60, 140 90 C140 110, 125 125, 100 140 C75 125, 60 110, 60 90 C60 60, 100 40, 100 40 Z" 
        fill="#304E32" opacity="0.9"/>
  
  <!-- Tige centrale -->
  <rect x="97" y="90" width="6" height="50" rx="3" fill="#304E32"/>
  
  <!-- Feuilles latérales -->
  <path d="M97 100 Q70 95 60 110" stroke="#4a7350" stroke-width="4" fill="none" stroke-linecap="round"/>
  <path d="M103 110 Q130 105 140 120" stroke="#4a7350" stroke-width="4" fill="none" stroke-linecap="round"/>
  
  <!-- Racines stylisées -->
  <path d="M95 140 Q90 150 85 160" stroke="#8B7355" stroke-width="3" fill="none" stroke-linecap="round"/>
  <path d="M100 140 Q100 152 100 165" stroke="#8B7355" stroke-width="3" fill="none" stroke-linecap="round"/>
  <path d="M105 140 Q110 150 115 160" stroke="#8B7355" stroke-width="3" fill="none" stroke-linecap="round"/>
  
  <!-- Texte ROMBONE -->
  <text x="100" y="185" font-family="serif" font-size="18" font-weight="700" 
        text-anchor="middle" fill="#304E32" letter-spacing="2">ROMBONE</text>
</svg>
